<svg width="25" height="24" viewBox="0 0 25 24" fill="none" xmlns="http://www.w3.org/2000/svg">
<g clip-path="url(#clip0_8_531)">
<path fill-rule="evenodd" clip-rule="evenodd" d="M20 3H5C4.17157 3 3.5 3.67157 3.5 4.5V19.5C3.5 20.3284 4.17157 21 5 21H20C20.8284 21 21.5 20.3284 21.5 19.5V4.5C21.5 3.67157 20.8284 3 20 3ZM20 19.5H5V4.5H20V19.5ZM17 12C17 12.4142 16.6642 12.75 16.25 12.75H13.25V15.75C13.25 16.1642 12.9142 16.5 12.5 16.5C12.0858 16.5 11.75 16.1642 11.75 15.75V12.75H8.75C8.33579 12.75 8 12.4142 8 12C8 11.5858 8.33579 11.25 8.75 11.25H11.75V8.25C11.75 7.83579 12.0858 7.5 12.5 7.5C12.9142 7.5 13.25 7.83579 13.25 8.25V11.25H16.25C16.6642 11.25 17 11.5858 17 12Z" fill="#121A0F"/>
</g>
<defs>
<clipPath id="clip0_8_531">
<rect width="24" height="24" fill="white" transform="translate(0.5)"/>
</clipPath>
</defs>
</svg>
