<svg width="20" height="20" viewBox="0 0 20 20" fill="none" xmlns="http://www.w3.org/2000/svg">
<path fill-rule="evenodd" clip-rule="evenodd" d="M19.6488 17.8751C18.2209 15.4067 16.0206 13.6367 13.4528 12.7976C16.0636 11.2434 17.3142 8.13649 16.5082 5.20701C15.7022 2.27752 13.0383 0.247559 10 0.247559C6.96168 0.247559 4.2978 2.27752 3.49183 5.20701C2.68586 8.13649 3.93646 11.2434 6.5472 12.7976C3.97939 13.6357 1.77907 15.4057 0.35126 17.8751C0.208713 18.1075 0.203537 18.399 0.337741 18.6364C0.471945 18.8737 0.724385 19.0195 0.997034 19.0172C1.26968 19.0148 1.51958 18.8647 1.6497 18.6251C3.41595 15.5726 6.53782 13.7501 10 13.7501C13.4622 13.7501 16.5841 15.5726 18.3503 18.6251C18.4804 18.8647 18.7303 19.0148 19.003 19.0172C19.2756 19.0195 19.5281 18.8737 19.6623 18.6364C19.7965 18.399 19.7913 18.1075 19.6488 17.8751ZM4.75001 7.00011C4.75001 4.10061 7.10051 1.75011 10 1.75011C12.8995 1.75011 15.25 4.10061 15.25 7.00011C15.25 9.8996 12.8995 12.2501 10 12.2501C7.1018 12.247 4.75311 9.89832 4.75001 7.00011Z" fill="#FE8C00"/>
</svg>
