<svg width="25" height="32" viewBox="0 0 25 32" fill="none" xmlns="http://www.w3.org/2000/svg">
<path fill-rule="evenodd" clip-rule="evenodd" d="M22.1488 23.8751C20.7209 21.4067 18.5206 19.6367 15.9528 18.7976C18.5636 17.2434 19.8142 14.1365 19.0082 11.207C18.2022 8.27752 15.5383 6.24756 12.5 6.24756C9.46168 6.24756 6.7978 8.27752 5.99183 11.207C5.18586 14.1365 6.43646 17.2434 9.0472 18.7976C6.47939 19.6357 4.27907 21.4057 2.85126 23.8751C2.70871 24.1075 2.70354 24.399 2.83774 24.6364C2.97194 24.8737 3.22439 25.0195 3.49703 25.0172C3.76968 25.0148 4.01958 24.8647 4.1497 24.6251C5.91595 21.5726 9.03782 19.7501 12.5 19.7501C15.9622 19.7501 19.0841 21.5726 20.8503 24.6251C20.9804 24.8647 21.2303 25.0148 21.503 25.0172C21.7756 25.0195 22.0281 24.8737 22.1623 24.6364C22.2965 24.399 22.2913 24.1075 22.1488 23.8751ZM7.25001 13.0001C7.25001 10.1006 9.60051 7.75011 12.5 7.75011C15.3995 7.75011 17.75 10.1006 17.75 13.0001C17.75 15.8996 15.3995 18.2501 12.5 18.2501C9.6018 18.247 7.25311 15.8983 7.25001 13.0001Z" fill="#121A0F"/>
</svg>
